# Blender 4.5.2 LTS
# www.blender.org
mtllib obamium.mtl
o bottom
v 0.707107 -0.500000 -0.707107
v 0.707107 -0.500000 0.707107
v -0.707107 -0.500000 0.707107
v -0.707107 -0.500000 -0.707107
vn -0.0000 -1.0000 -0.0000
vt 0.302583 0.830241
vt 0.302583 0.684909
vt 0.658106 0.692896
vt 0.658106 0.830241
s 0
usemtl bottom
f 1/1/1 2/2/1 3/3/1 4/4/1
o front
v 0.707107 -0.500000 -0.707107
v 0.707107 -0.500000 0.707107
v 0.000000 0.500000 0.000000
v 0.353553 0.000000 0.353553
v 0.353553 0.000000 -0.353553
v 0.707107 -0.500000 0.000000
v 0.530330 -0.250000 0.530330
v 0.530330 -0.250000 -0.530330
v 0.707107 -0.500000 0.353553
v 0.176777 0.250000 0.176777
v 0.176777 0.250000 -0.176777
v 0.707107 -0.500000 -0.353553
v 0.530330 -0.250000 0.176777
v 0.530330 -0.250000 -0.176777
v 0.353553 0.000000 0.000000
vn 0.8165 0.5774 -0.0000
vt 0.709870 0.414671
vt 0.763748 0.505574
vt 0.595275 0.352773
vt 0.481362 0.356543
vt 0.404192 0.465791
vt 0.372992 0.352134
vt 0.558533 0.465791
vt 0.723885 0.588349
vt 0.549605 0.755947
vt 0.483328 0.588349
vt 0.377740 0.743075
vt 0.244737 0.588349
vt 0.477431 0.865414
vt 0.230071 0.498278
vt 0.265839 0.421372
s 0
usemtl front
f 5/5/2 12/6/2 16/7/2
f 10/8/2 17/9/2 13/10/2
f 10/8/2 18/11/2 17/9/2
f 9/12/2 15/13/2 19/14/2
f 19/14/2 14/15/2 8/16/2
f 19/14/2 15/13/2 14/15/2
f 15/13/2 7/17/2 14/15/2
f 17/9/2 19/14/2 8/16/2
f 17/9/2 18/11/2 19/14/2
f 18/11/2 9/12/2 19/14/2
f 13/10/2 11/18/2 6/19/2
f 13/10/2 17/9/2 11/18/2
f 17/9/2 8/16/2 11/18/2
f 16/7/2 18/11/2 10/8/2
f 16/7/2 12/6/2 18/11/2
f 12/6/2 9/12/2 18/11/2
o sides
v 0.707107 -0.500000 0.707107
v -0.707107 -0.500000 0.707107
v 0.000000 0.500000 0.000000
v 0.353553 0.000000 0.353553
v -0.000000 -0.500000 0.707107
v -0.353553 0.000000 0.353553
v 0.530330 -0.250000 0.530330
v -0.353553 -0.500000 0.707107
v -0.530330 -0.250000 0.530330
v 0.176777 0.250000 0.176777
v 0.353553 -0.500000 0.707107
v -0.176777 0.250000 0.176777
v -0.176777 -0.250000 0.530330
v 0.176777 -0.250000 0.530330
v 0.000000 0.000000 0.353553
vn -0.0000 0.5774 0.8165
vt 0.497174 0.410422
vt 0.554715 0.498842
vt 0.556009 0.334768
vt 0.603906 0.264323
vt 0.766135 0.387899
vt 0.668210 0.157419
vt 0.613550 0.480480
vt 0.554443 0.550803
vt 0.760422 0.856671
vt 0.783591 0.713431
vt 0.909882 0.680756
vt 0.928363 0.511475
vt 0.891400 0.850038
vt 0.830438 0.280995
vt 0.732514 0.050515
s 0
usemtl Material
f 20/20/3 26/21/3 30/22/3
f 24/23/3 32/24/3 27/25/3
f 24/23/3 33/26/3 32/24/3
f 23/27/3 29/28/3 34/29/3
f 34/29/3 31/30/3 25/31/3
f 34/29/3 29/28/3 31/30/3
f 29/28/3 22/32/3 31/30/3
f 32/24/3 34/29/3 25/31/3
f 32/24/3 33/26/3 34/29/3
f 33/26/3 23/27/3 34/29/3
f 27/25/3 28/33/3 21/34/3
f 27/25/3 32/24/3 28/33/3
f 32/24/3 25/31/3 28/33/3
f 30/22/3 33/26/3 24/23/3
f 30/22/3 26/21/3 33/26/3
f 26/21/3 23/27/3 33/26/3
o back
v -0.707107 -0.500000 -0.707107
v -0.707107 -0.500000 0.707107
v 0.000000 0.500000 0.000000
v -0.353553 0.000000 -0.353553
v -0.353553 0.000000 0.353553
v -0.707107 -0.500000 0.000000
vn -0.8165 0.5774 -0.0000
vt 0.706613 0.562992
vt 0.802772 0.689380
vt 0.668683 0.708852
vt 0.746075 0.907409
vt 0.630753 0.854712
vt 0.880164 0.887937
s 0
usemtl back
f 36/35/4 39/36/4 40/37/4
f 40/37/4 38/38/4 35/39/4
f 40/37/4 39/36/4 38/38/4
f 39/36/4 37/40/4 38/38/4
o sides.001
v 0.707107 -0.500000 -0.707107
v -0.707107 -0.500000 -0.707106
v 0.000000 0.500000 0.000000
v -0.000000 -0.500000 -0.707107
v -0.353553 0.000000 -0.353553
v 0.353553 0.000000 -0.353553
v -0.353553 -0.500000 -0.707106
v -0.530330 -0.250000 -0.530330
v 0.176777 0.250000 -0.176777
v 0.353553 -0.500000 -0.707107
v -0.176777 0.250000 -0.176776
v 0.530330 -0.250000 -0.530330
v -0.176777 -0.250000 -0.530330
v 0.176777 -0.250000 -0.530330
v 0.000000 0.000000 -0.353553
vn -0.0000 0.5774 -0.8165
vt 0.497174 0.410422
vt 0.556009 0.334768
vt 0.554715 0.498842
vt 0.603906 0.264323
vt 0.668210 0.157419
vt 0.766135 0.387899
vt 0.613550 0.480480
vt 0.554443 0.550803
vt 0.783591 0.713431
vt 0.760422 0.856671
vt 0.928363 0.511475
vt 0.909882 0.680756
vt 0.891400 0.850038
vt 0.732514 0.050515
vt 0.830438 0.280995
s 0
usemtl Material
f 41/41/5 50/42/5 52/43/5
f 44/44/5 47/45/5 53/46/5
f 44/44/5 53/46/5 54/47/5
f 46/48/5 55/49/5 49/50/5
f 55/49/5 45/51/5 51/52/5
f 55/49/5 51/52/5 49/50/5
f 49/50/5 51/52/5 43/53/5
f 53/46/5 45/51/5 55/49/5
f 53/46/5 55/49/5 54/47/5
f 54/47/5 55/49/5 46/48/5
f 47/45/5 42/54/5 48/55/5
f 47/45/5 48/55/5 53/46/5
f 53/46/5 48/55/5 45/51/5
f 50/42/5 44/44/5 54/47/5
f 50/42/5 54/47/5 52/43/5
f 52/43/5 54/47/5 46/48/5
