# Blender 4.5.1 LTS
# www.blender.org
mtllib obamium.mtl
o obamium
v -0.117851 1.083333 -0.000000
v -0.648181 0.333333 0.530330
v -1.178511 -0.416667 -0.000000
v -1.178511 -0.416667 1.060660
v 0.942809 -0.416667 -1.060660
v 0.942809 -0.416667 1.060660
v 0.942809 -0.416667 -0.000000
v 0.677644 -0.041667 0.795495
v 0.677644 -0.041667 -0.795495
v 0.942809 -0.416667 0.530330
v 0.147314 0.708333 0.265165
v 0.942809 -0.416667 -0.530330
v 0.677644 -0.041667 0.265165
v 0.677644 -0.041667 -0.265165
v 0.412479 0.333333 -0.000000
v 0.412479 0.333333 0.530330
v -0.117851 -0.416667 1.060660
v -0.648181 -0.416667 1.060660
v -0.913346 -0.041667 0.795495
v 0.412479 -0.416667 1.060660
v -0.383016 0.708333 0.265165
v -0.383016 -0.041667 0.795495
v 0.147314 -0.041667 0.795495
v -0.117851 0.333333 0.530330
v -1.178512 -0.416667 -1.060660
v -0.117851 -0.416667 -1.060660
v -0.648181 0.333333 -0.530330
v 0.412479 0.333333 -0.530330
v -0.648181 -0.416667 -1.060660
v -0.913346 -0.041667 -0.795495
v 0.147314 0.708333 -0.265165
v 0.412479 -0.416667 -1.060660
v -0.383016 0.708333 -0.265165
v -0.383016 -0.041667 -0.795495
v 0.147314 -0.041667 -0.795495
v -0.117851 0.333333 -0.530330
vn -0.8165 0.5774 -0.0000
vn -0.0000 -1.0000 -0.0000
vn 0.8165 0.5774 -0.0000
vn -0.0000 0.5774 0.8165
vn -0.0000 0.5773 0.8165
vn -0.0000 0.5774 -0.8165
vn -0.0000 0.5773 -0.8165
vt 0.706613 0.562992
vt 0.802772 0.689380
vt 0.668683 0.708852
vt 0.746075 0.907409
vt 0.630753 0.854712
vt 0.880164 0.887937
vt 0.302583 0.830241
vt 0.302583 0.684909
vt 0.658106 0.692896
vt 0.658106 0.830241
vt 0.709870 0.414671
vt 0.763748 0.505574
vt 0.595275 0.352773
vt 0.481362 0.356543
vt 0.404192 0.465791
vt 0.372992 0.352134
vt 0.558533 0.465791
vt 0.723885 0.588349
vt 0.549605 0.755947
vt 0.483328 0.588349
vt 0.377740 0.743075
vt 0.244737 0.588349
vt 0.477431 0.865414
vt 0.230071 0.498278
vt 0.265839 0.421372
vt 0.497174 0.410422
vt 0.554715 0.498842
vt 0.556009 0.334768
vt 0.603906 0.264323
vt 0.766135 0.387899
vt 0.668210 0.157419
vt 0.613550 0.480480
vt 0.554443 0.550803
vt 0.760422 0.856671
vt 0.783591 0.713431
vt 0.909882 0.680756
vt 0.928363 0.511475
vt 0.891400 0.850038
vt 0.830438 0.280995
vt 0.732514 0.050515
s 0
usemtl back
f 4/1/1 2/2/1 3/3/1
f 3/3/1 27/4/1 25/5/1
f 3/3/1 2/2/1 27/4/1
f 2/2/1 1/6/1 27/4/1
usemtl bottom
f 5/7/2 6/8/2 4/9/2 25/10/2
usemtl front
f 5/11/3 9/12/3 12/13/3
f 7/14/3 13/15/3 10/16/3
f 7/14/3 14/17/3 13/15/3
f 28/18/3 31/19/3 15/20/3
f 15/20/3 11/21/3 16/22/3
f 15/20/3 31/19/3 11/21/3
f 31/19/3 1/23/3 11/21/3
f 13/15/3 15/20/3 16/22/3
f 13/15/3 14/17/3 15/20/3
f 14/17/3 28/18/3 15/20/3
f 10/16/3 8/24/3 6/25/3
f 10/16/3 13/15/3 8/24/3
f 13/15/3 16/22/3 8/24/3
f 12/13/3 14/17/3 7/14/3
f 12/13/3 9/12/3 14/17/3
f 9/12/3 28/18/3 14/17/3
usemtl Material
f 6/26/4 8/27/4 20/28/4
f 17/29/5 22/30/5 18/31/5
f 17/29/4 23/32/4 22/30/4
f 16/33/4 11/34/4 24/35/4
f 24/35/4 21/36/4 2/37/4
f 24/35/4 11/34/4 21/36/4
f 11/34/4 1/38/4 21/36/4
f 22/30/5 24/35/5 2/37/5
f 22/30/4 23/32/4 24/35/4
f 23/32/4 16/33/4 24/35/4
f 18/31/4 19/39/4 4/40/4
f 18/31/4 22/30/4 19/39/4
f 22/30/4 2/37/4 19/39/4
f 20/28/5 23/32/5 17/29/5
f 20/28/4 8/27/4 23/32/4
f 8/27/4 16/33/4 23/32/4
f 5/26/6 32/28/6 9/27/6
f 26/29/7 29/31/7 34/30/7
f 26/29/6 34/30/6 35/32/6
f 28/33/6 36/35/6 31/34/6
f 36/35/6 27/37/6 33/36/6
f 36/35/6 33/36/6 31/34/6
f 31/34/6 33/36/6 1/38/6
f 34/30/6 27/37/6 36/35/6
f 34/30/6 36/35/6 35/32/6
f 35/32/6 36/35/6 28/33/6
f 29/31/6 25/40/6 30/39/6
f 29/31/6 30/39/6 34/30/6
f 34/30/6 30/39/6 27/37/6
f 32/28/6 26/29/6 35/32/6
f 32/28/6 35/32/6 9/27/6
f 9/27/7 35/32/7 28/33/7
